# AST/ASF file generated using VICON BodyLanguage
# -----------------------------------------------
:version 1.10
:name VICON
:units
  mass 1.0
  length 0.45
  angle deg
:documentation
   .ast/.asf automatically generated from VICON data using
   VICON BodyBuilder and BodyLanguage model FoxedUp or BRILLIANT.MOD
:root
   order TX TY TZ RX RY RZ
   axis XYZ
   position 0 0 0  
   orientation 0 0 0 
:bonedata
  begin
     id 1 
     name lhipjoint
     direction 0.612567 -0.751349 0.245431 
     length 2.42285 
     axis 0 0 0  XYZ
  end
  begin
     id 2 
     name lfemur
     direction 0.34202 -0.939693 0  
     length 7.11304  
     axis 0 0 20  XYZ
    dof rx ry rz
    limits (-160.0 20.0)
           (-70.0 70.0)
           (-60.0 70.0)
  end
  begin
     id 3 
     name ltibia
     direction 0.34202 -0.939693 0   
     length 7.84529   
     axis 0 0 20   XYZ
    dof rx
    limits (-10.0 170.0)
  end
  begin
     id 4 
     name lfoot
     direction 0.0779239 -0.214094 0.9737   
     length 1.97176   
     axis -90 7.62852e-016 20   XYZ
    dof rx rz
    limits (-45.0 90.0)
           (-70.0 20.0)
  end
  begin
     id 5 
     name ltoes
     direction 1.53565e-011 -4.21709e-011 1   
     length 0.993197   
     axis -90 7.62852e-016 20   XYZ
    dof rx
    limits (-90.0 20.0)
  end
  begin
     id 6 
     name rhipjoint
     direction -0.665722 -0.709315 0.231701   
     length 2.56642  
     axis 0 0 0  XYZ 
  end
  begin
     id 7 
     name rfemur
     direction -0.34202 -0.939693 0   
     length 7.32108   
     axis 0 0 -20   XYZ
    dof rx ry rz
    limits (-160.0 20.0)
           (-70.0 70.0)
           (-70.0 60.0)
  end
  begin
     id 8 
     name rtibia
     direction -0.34202 -0.939693 0   
     length 7.81254   
     axis 0 0 -20   XYZ
    dof rx
    limits (-10.0 170.0)
 end
 begin
     id 9 
     name rfoot
     direction -0.0832806 -0.228812 0.969902   
     length 2.08278  
     axis -90 -7.62852e-016 -20   XYZ
    dof rx rz
    limits (-45.0 90.0)
           (-20.0 70.0)
  end
  begin
     id 10 
     name rtoes
     direction -1.53589e-011 -4.22086e-011 1   
     length 1.04609   
     axis -90 -7.62852e-016 -20   XYZ
    dof rx
    limits (-90.0 20.0)
  end
  begin
     id 11 
     name lowerback
     direction -0.00506013 0.988403 -0.151766   
     length 2.01978   
     axis 0 0 0   XYZ
    dof rx ry rz
    limits (-20.0 45.0)
           (-30.0 30.0)
           (-30.0 30.0)
  end
  begin
     id 12 
     name upperback
     direction -0.00836389 0.99968 0.0238859   
     length 2.01276   
     axis 0 0 0   XYZ
    dof rx ry rz
    limits (-20.0 45.0)
           (-30.0 30.0)
           (-30.0 30.0)
  end
  begin
     id 13 
     name thorax
     direction -0.00684136 0.995386 0.0957043   
     length 2.07303   
     axis 0 0 0   XYZ
    dof rx ry rz
    limits (-20.0 45.0)
           (-30.0 30.0)
           (-30.0 30.0)
  end
  begin
     id 14 
     name lowerneck
     direction -0.0161045 0.999661 0.0204485   
     length 1.91243   
     axis 0 0 0   XYZ
    dof rx ry rz
    limits (-20.0 45.0)
           (-30.0 30.0)
           (-30.0 30.0)
  end
  begin
     id 15 
     name upperneck
     direction 0.0553583 0.990946 -0.122319   
     length 1.91574   
     axis 0 0 0   XYZ
    dof rx ry rz
    limits (-20.0 45.0)
           (-30.0 30.0)
           (-30.0 30.0)
  end
  begin
     id 16
     name head
     direction 0.0180273 0.998839 -0.0446756  
     length 1.92693  
     axis 0 0 0   XYZ
    dof rx ry rz
    limits (-20.0 45.0)
           (-30.0 30.0)
           (-30.0 30.0)
  end
  begin
     id 17 
     name lclavicle
     direction 0.945646 0.319323 -0.0615358  
     length 4.0076  
     axis 0 0 0   XYZ
    dof ry rz
    limits (-20.0 10.0)
           (0.0 20.0)
  end
  begin
     id 18 
     name lhumerus
     direction 1 -4.48967e-011 -2.79996e-027   
     length 5.64147   
     axis 180 -30 -90   XYZ
    dof rx ry rz
    limits (-60.0 90.0)
           (-90.0 90.0)
           (-90.0 90.0)
  end
  begin
     id 19
     name lradius
     direction 1 -4.48976e-011 -9.5122e-027   
     length 2.86444   
     axis 180 -30 -90   XYZ
    dof rx
    limits (-10.0 170.0)
  end
  begin
     id 20
     name lwrist
     direction 1 -4.48983e-011 -1.24047e-026   
     length 1.43222   
     axis 9.05591e-015 90 90   XYZ
    dof ry
    limits (-180.0 0.0)
 end
  begin
     id 21 
     name lhand
     direction 1 -4.4892e-011 -2.48094e-026   
     length 0.722123   
     axis 1.58305e-014 90 90   XYZ
    dof rx rz
    limits (-90.0 90.0)
           (-45.0 45.0)
  end
  begin
     id 22 
     name lfingers
     direction 1 -4.48895e-011 -4.96187e-026   
     length 0.582194   
     axis 3.1661e-014 90 90   XYZ
    dof rx
    limits (0.0 90.0)
  end
  begin
     id 23
     name lthumb
     direction 0.707107 -6.34961e-011 0.707107   
     length 0.835918   
     axis -90 45 2.85299e-015   XYZ
    dof rx rz
    limits (-45.0 45.0)
           (-45.0 45.0)
  end
  begin
     id 24 
     name rclavicle
     direction -0.932635 0.324218 -0.15835   
     length 3.65819  
     axis 0 0 0   XYZ 
    dof ry rz
    limits (-10.0 20.0)
           (-20.0 0.0)
  end
  begin
     id 25 
     name rhumerus
     direction -1 -4.48965e-011 -4.02296e-027  
     length 5.44729   
     axis 180 30 90   XYZ
    dof rx ry rz
    limits (-90.0 60.0)
           (-90.0 90.0)
           (-90.0 90.0)
  end
  begin
     id 26 
     name rradius
     direction -1 -4.48957e-011 -8.81087e-027   
     length 3.08821   
     axis 180 30 90   XYZ
    dof rx
    limits (-10.0 170.0)
  end
  begin
     id 27 
     name rwrist
     direction -1 -4.49015e-011 -1.24047e-026   
     length 1.5441   
     axis 9.05591e-015 -90 -90   XYZ
    dof ry
    limits (-180.0 0.0)
  end
  begin
     id 28
     name rhand
     direction -1 -4.4891e-011 -2.48094e-026   
     length 0.821049   
     axis 1.58305e-014 -90 -90   XYZ
    dof rx rz
    limits (-90.0 90.0)
           (-45.0 45.0)
  end
  begin
     id 29
     name rfingers
     direction -1 -4.48985e-011 -4.96187e-026   
     length 0.661951   
     axis 3.1661e-014 -90 -90   XYZ
    dof rx
    limits (0.0 90.0)
  end
  begin
     id 30
     name rthumb
     direction -0.707107 -6.34906e-011 0.707107   
     length 0.950433   
     axis -90 -45 -2.85299e-015   XYZ
    dof rx rz
    limits (-45.0 45.0)
           (-45.0 45.0)
  end
:hierarchy
  begin
    root lhipjoint rhipjoint lowerback
    lhipjoint lfemur
    lfemur ltibia
    ltibia lfoot
    lfoot ltoes
    rhipjoint rfemur
    rfemur rtibia
    rtibia rfoot
    rfoot rtoes
    lowerback upperback
    upperback thorax
    thorax lowerneck lclavicle rclavicle
    lowerneck upperneck
    upperneck head
    lclavicle lhumerus
    lhumerus lradius
    lradius lwrist
    lwrist lhand lthumb
    lhand lfingers
    rclavicle rhumerus
    rhumerus rradius
    rradius rwrist
    rwrist rhand rthumb
    rhand rfingers
  end

#!OML:ASF F:\VICON\USERDATA\INSTALL\rory3\rory3.ASF
:FULLY-SPECIFIED
:DEGREES
3120
root 3.32947 17.7724 0.403264 -25.9394 88.5282 -25.9235
lowerback 2.06605 0.236852 3.30281
upperback 0.939974 0.381993 -0.578819
thorax -0.168469 0.203894 -2.45416
lowerneck -0.343763 -5.27418 -5.67401
upperneck -2.04045 -6.90538 8.99747
head -0.0295838 -3.44385 3.88808
rclavicle 1.70209e-015 -3.03147e-015
rhumerus -34.4659 -2.28522 -85.5248
rradius 32.7054
rwrist 11.8968
rhand -5.60471 10.2041
rfingers 7.12502
rthumb 20.2123 -18.7644
lclavicle 1.70209e-015 -3.03147e-015
lhumerus -31.8184 -11.7605 90.0699
lradius 29.5125
lwrist 29.6046
lhand -9.06754 9.80442
lfingers 7.12502
lthumb 16.8814 39.0907
rfemur 0.455367 1.68938 19.5869
rtibia 14.6608
rfoot -16.1325 -1.06004
rtoes -6.4176
lfemur 0 0 0
ltibia 0
lfoot 0 0
ltoes 0
3121
root 3.32849 17.7717 0.404135 -26.7825 88.4882 -26.7687
lowerback 2.06379 0.244825 3.3235
upperback 0.942794 0.392948 -0.571081
thorax -0.163475 0.209553 -2.45803
lowerneck -0.408019 -5.27239 -5.65553
upperneck -1.94725 -6.9064 8.97873
head 0.0103044 -3.44219 3.87403
rclavicle 4.11857e-015 4.07509e-015
rhumerus -34.4453 -2.33095 -85.5117
rradius 32.6013
rwrist 11.9226
rhand -5.75753 10.3314
rfingers 7.12502
rthumb 20.0654 -18.6524
lclavicle 4.11857e-015 4.07509e-015
lhumerus -31.8011 -11.7663 90.0529
lradius 29.4605
lwrist 29.655
lhand -9.11196 9.75606
lfingers 7.12502
lthumb 16.8387 39.046
rfemur 0.450378 1.74656 19.638
rtibia 14.6493
rfoot -16.1003 -1.13807
rtoes -6.52872
lfemur 0 0 0
ltibia 0
lfoot 0 0
ltoes 0
3122
root 3.32876 17.7714 0.40352 -29.2368 88.4541 -29.2381
lowerback 2.02911 0.25034 3.41459
upperback 0.950875 0.400688 -0.560569
thorax -0.134597 0.214303 -2.49832
lowerneck -0.431118 -5.29235 -5.64171
upperneck -1.91389 -6.93447 8.96815
head 0.0263881 -3.45548 3.86571
rclavicle -2.08724e-015 9.93923e-017
rhumerus -34.4168 -2.36234 -85.5001
rradius 32.5585
rwrist 11.9261
rhand -5.84884 10.4093
rfingers 7.12502
rthumb 19.9777 -18.5838
lclavicle -2.08724e-015 9.93923e-017
lhumerus -31.7648 -11.771 90.0315
lradius 29.3964
lwrist 29.6101
lhand -9.04214 9.64142
lfingers 7.12502
lthumb 16.9059 38.9256
rfemur 0.43968 1.66603 19.7078
rtibia 14.6297
rfoot -16.0408 -1.09386
rtoes -6.52607
lfemur 0 0 0
ltibia 0
lfoot 0 0
ltoes 0
3123
root 3.32947 17.7714 0.402477 -29.3284 88.4601 -29.3203
lowerback 2.03077 0.247887 3.42969
upperback 0.952974 0.397735 -0.564053
thorax -0.133433 0.212939 -2.51033
lowerneck -0.430057 -5.30074 -5.65665
upperneck -1.88983 -6.94745 8.97008
head 0.0356153 -3.46177 3.86857
rclavicle -6.02566e-016 3.72721e-015
rhumerus -34.4176 -2.37766 -85.4762
rradius 32.5189
rwrist 11.912
rhand -5.85612 10.3717
rfingers 7.12502
rthumb 19.9707 -18.6221
lclavicle -6.02566e-016 3.72721e-015
lhumerus -31.7327 -11.6331 89.973
lradius 29.2786
lwrist 29.3945
lhand -8.8718 9.52564
lfingers 7.12502
lthumb 17.0698 38.7957
rfemur 0.464604 1.59609 19.6982
rtibia 14.6252
rfoot -16.056 -1.03839
rtoes -6.67617
lfemur 0 0 0
ltibia 0
lfoot 0 0
ltoes 0
3124
root 3.33036 17.7717 0.401953 -26.7938 88.4936 -26.7706
lowerback 2.03444 0.249167 3.35848
upperback 0.959409 0.39815 -0.585844
thorax -0.12925 0.213165 -2.49272
lowerneck -0.444638 -5.29288 -5.67578
upperneck -1.85443 -6.93834 8.99085
head 0.0504142 -3.4565 3.87851
rclavicle 9.12235e-015 1.3418e-015
rhumerus -34.4122 -2.43808 -85.4496
rradius 32.4903
rwrist 11.991
rhand -5.8469 10.3007
rfingers 7.12502
rthumb 19.9795 -18.6921
lclavicle 9.12235e-015 1.3418e-015
lhumerus -31.7266 -11.5315 89.9287
lradius 29.2443
lwrist 29.2423
lhand -8.76737 9.6676
lfingers 7.12502
lthumb 17.1704 38.9289
rfemur 0.470934 1.66867 19.6181
rtibia 14.654
rfoot -16.1117 -1.02905
rtoes -6.35367
lfemur 0 0 0
ltibia 0
lfoot 0 0
ltoes 0
3125
root 3.33103 17.7724 0.401809 -25.471 88.5052 -25.4454
lowerback 2.0356 0.246216 3.31872
upperback 0.950181 0.393523 -0.596786
thorax -0.139911 0.210396 -2.48158
lowerneck -0.430542 -5.27384 -5.68078
upperneck -1.81635 -6.91564 8.99929
head 0.0588461 -3.44516 3.88266
rclavicle 2.88859e-015 7.45443e-015
rhumerus -34.4168 -2.50548 -85.4192
rradius 32.4285
rwrist 12.1449
rhand -5.79954 10.3554
rfingers 7.12502
rthumb 20.025 -18.6327
lclavicle 2.88859e-015 7.45443e-015
lhumerus -31.7536 -11.4955 89.8988
lradius 29.2412
lwrist 29.219
lhand -8.68244 9.89325
lfingers 7.12502
lthumb 17.2521 39.1475
rfemur 0.454995 1.72596 19.5711
rtibia 14.6755
rfoot -16.1169 -0.991055
rtoes -5.87513
lfemur 0 0 0
ltibia 0
lfoot 0 0
ltoes 0
3126
root 3.33041 17.7735 0.401473 -24.0721 88.5165 -24.0637
lowerback 2.03373 0.248612 3.28441
upperback 0.932031 0.396046 -0.607749
thorax -0.157498 0.210943 -2.47368
lowerneck -0.393853 -5.27054 -5.72643
upperneck -1.79893 -6.91365 9.03523
head 0.061014 -3.44473 3.90493
rclavicle -2.2208e-015 2.13694e-015
rhumerus -34.436 -2.56924 -85.3862
rradius 32.4073
rwrist 12.2519
rhand -5.79457 10.3861
rfingers 7.12502
rthumb 20.0298 -18.6015
lclavicle -2.2208e-015 2.13694e-015
lhumerus -31.7968 -11.523 89.9242
lradius 29.2561
lwrist 29.2913
lhand -8.77875 9.78138
lfingers 7.12502
lthumb 17.1594 39.0437
rfemur 0.41348 1.72958 19.5276
rtibia 14.7015
rfoot -16.1363 -1.02814
rtoes -6.07742
lfemur 0 0 0
ltibia 0
lfoot 0 0
ltoes 0
3127
root 3.33006 17.7735 0.401131 -24.0718 88.5157 -24.0736
lowerback 2.01945 0.248957 3.29021
upperback 0.933644 0.396075 -0.608825
thorax -0.147785 0.211163 -2.47795
lowerneck -0.408651 -5.26997 -5.73466
upperneck -1.78207 -6.91352 9.02995
head 0.0691333 -3.44418 3.90386
rclavicle -9.87711e-016 8.44835e-016
rhumerus -34.4619 -2.53222 -85.3951
rradius 32.4761
rwrist 12.173
rhand -5.7694 10.4101
rfingers 7.12502
rthumb 20.054 -18.575
lclavicle -9.87711e-016 8.44835e-016
lhumerus -31.7925 -11.5255 89.9369
lradius 29.1927
lwrist 29.2914
lhand -8.80635 9.62545
lfingers 7.12502
lthumb 17.1328 38.8901
rfemur 0.407453 1.71441 19.5241
rtibia 14.6896
rfoot -16.1235 -1.01229
rtoes -6.13457
lfemur 0 0 0
ltibia 0
lfoot 0 0
ltoes 0
3128
root 3.32938 17.773 0.402285 -25.2154 88.489 -25.2189
lowerback 2.01318 0.254105 3.31364
upperback 0.940583 0.403127 -0.603413
thorax -0.136536 0.215064 -2.48563
lowerneck -0.46814 -5.28424 -5.67442
upperneck -1.7319 -6.93385 8.97125
head 0.0926566 -3.45278 3.86847
rclavicle 1.36416e-014 2.68359e-015
rhumerus -34.4715 -2.51957 -85.4128
rradius 32.5151
rwrist 12.122
rhand -5.91139 10.3436
rfingers 7.12502
rthumb 19.9175 -18.6557
lclavicle 1.36416e-014 2.68359e-015
lhumerus -31.8002 -11.5358 89.922
lradius 29.1634
lwrist 29.2292
lhand -8.82289 9.60754
lfingers 7.12502
lthumb 17.1169 38.8735
rfemur 0.405407 1.77167 19.5779
rtibia 14.6791
rfoot -16.1511 -1.04062
rtoes -6.11957
lfemur 0 0 0
ltibia 0
lfoot 0 0
ltoes 0
3129
root 3.32937 17.7729 0.40192 -25.9996 88.4471 -26.0156
lowerback 1.99695 0.248268 3.34868
upperback 0.94451 0.395378 -0.59733
thorax -0.123712 0.211564 -2.49879
lowerneck -0.503038 -5.27612 -5.64315
upperneck -1.69571 -6.92414 8.93481
head 0.106942 -3.44698 3.84815
rclavicle -2.30466e-015 -1.63997e-015
rhumerus -34.4603 -2.48634 -85.4426
rradius 32.5023
rwrist 12.1119
rhand -6.04834 10.2685
rfingers 7.12502
rthumb 19.7859 -18.7444
lclavicle -2.30466e-015 -1.63997e-015
lhumerus -31.8038 -11.4653 89.8848
lradius 29.1484
lwrist 29.1829
lhand -8.9004 9.49479
lfingers 7.12502
lthumb 17.0423 38.7672
rfemur 0.389482 1.83897 19.6249
rtibia 14.6674
rfoot -16.1462 -1.07405
rtoes -6.07658
lfemur 0 0 0
ltibia 0
lfoot 0 0
ltoes 0
3130
root 3.32975 17.7719 0.400643 -25.0586 88.4827 -25.0525
lowerback 2.0119 0.240166 3.3268
upperback 0.959243 0.384628 -0.611056
thorax -0.117771 0.206533 -2.50044
lowerneck -0.550343 -5.26537 -5.63757
upperneck -1.64821 -6.91076 8.93173
head 0.129132 -3.4388 3.84387
rclavicle -4.01607e-015 -3.57812e-015
rhumerus -34.4695 -2.53759 -85.4197
rradius 32.5209
rwrist 12.0946
rhand -6.04482 10.2471
rfingers 7.12502
rthumb 19.7893 -18.7655
lclavicle -4.01607e-015 -3.57812e-015
lhumerus -31.7975 -11.4638 89.885
lradius 29.1514
lwrist 29.2438
lhand -8.91981 9.44237
lfingers 7.12502
lthumb 17.0236 38.7164
rfemur 0.419482 1.76988 19.5666
rtibia 14.6659
rfoot -16.1206 -1.00995
rtoes -5.97583
lfemur 0 0 0
ltibia 0
lfoot 0 0
ltoes 0
3131
root 3.33095 17.7719 0.399756 -24.151 88.5258 -24.1329
lowerback 2.01243 0.234027 3.29509
upperback 0.957273 0.375866 -0.620341
thorax -0.120853 0.201983 -2.492
lowerneck -0.560812 -5.25949 -5.65389
upperneck -1.60841 -6.90505 8.93079
head 0.143881 -3.43535 3.84574
rclavicle -1.60581e-015 -2.13694e-015
rhumerus -34.497 -2.55784 -85.3953
rradius 32.5216
rwrist 12.037
rhand -6.16222 10.3336
rfingers 7.12502
rthumb 19.6764 -18.6906
lclavicle -1.60581e-015 -2.13694e-015
lhumerus -31.8249 -11.4644 89.8979
lradius 29.1604
lwrist 29.2343
lhand -8.92293 9.46771
lfingers 7.12502
lthumb 17.0206 38.742
rfemur 0.443148 1.64043 19.5082
rtibia 14.6678
rfoot -16.0931 -0.954076
rtoes -6.34749
lfemur 0 0 0
ltibia 0
lfoot 0 0
ltoes 0
3132
root 3.3318 17.7721 0.400449 -25.6678 88.5201 -25.6421
lowerback 2.0048 0.226932 3.32645
upperback 0.956817 0.36672 -0.612505
thorax -0.117491 0.197534 -2.50134
lowerneck -0.558725 -5.24986 -5.65169
upperneck -1.58117 -6.89393 8.92858
head 0.151185 -3.42962 3.84438
rclavicle -8.47941e-015 -5.96354e-016
rhumerus -34.4939 -2.58371 -85.389
rradius 32.4723
rwrist 12.0615
rhand -6.26269 10.4269
rfingers 7.12502
rthumb 19.5798 -18.6071
lclavicle -8.47941e-015 -5.96354e-016
lhumerus -31.8432 -11.3833 89.8701
lradius 29.1398
lwrist 29.1448
lhand -8.9311 9.53991
lfingers 7.12502
lthumb 17.0128 38.8149
rfemur 0.449065 1.60917 19.5584
rtibia 14.6797
rfoot -16.1172 -0.954546
rtoes -6.69503
lfemur 0 0 0
ltibia 0
lfoot 0 0
ltoes 0
